# Created by Metasequoia

mtllib door.mtl

v -0.500000 0.499999 0.000000
v 0.500000 0.499999 0.000000
v -0.500000 -0.499999 -0.000000
v 0.500000 -0.499999 -0.000000
v 0.500000 0.250000 0.000000
v -0.500000 0.250000 0.000000
v -0.250000 0.250000 0.000000
v -0.250000 0.499999 0.000000
v -0.250000 -0.499999 -0.000000
v 0.250000 0.250000 0.000000
v 0.250000 0.499999 0.000000
v 0.250000 -0.499999 -0.000000
# 12 vertices

vt 0.23422 0.60435
vt 0.00000 0.60435
vt 0.00000 1.00000
vt 0.23422 1.00000
vt 0.23422 0.00000
vt 0.00000 0.00000
vt 1.00000 0.60435
vt 0.73056 0.60435
vt 0.73056 1.00000
vt 1.00000 1.00000
vt 1.00000 0.00000
vt 0.73056 0.00000
# 12 texture vertices

vn 0.00000 -0.00000 1.00000
vn 0.00000 -0.00000 1.00000
vn 0.00000 -0.00000 1.00000
vn 0.00000 -0.00000 1.00000
# 4 normal vertices

s 1
usemtl mat1
f 8/4/3 6/2/2 7/1/1
f 8/4/3 1/3/3 6/2/2
f 7/1/1 3/6/4 9/5/4
f 7/1/1 6/2/2 3/6/4
f 2/10/3 10/8/1 5/7/2
f 2/10/3 11/9/3 10/8/1
f 11/9/3 7/1/1 10/8/1
f 11/9/3 8/4/3 7/1/1
f 5/7/2 12/12/4 4/11/4
f 5/7/2 10/8/1 12/12/4
# 10 elements

